ffmpeg version 2025-06-28-git-cfd1f81e7d-full_build-www.gyan.dev Copyright (c) 2000-2025 the FFmpeg developers
  built with gcc 15.1.0 (Rev4, Built by MSYS2 project)
  configuration: --enable-gpl --enable-version3 --enable-static --disable-w32threads --disable-autodetect --enable-fontconfig --enable-iconv --enable-gnutls --enable-lcms2 --enable-libxml2 --enable-gmp --enable-bzlib --enable-lzma --enable-libsnappy --enable-zlib --enable-librist --enable-libsrt --enable-libssh --enable-libzmq --enable-avisynth --enable-libbluray --enable-libcaca --enable-libdvdnav --enable-libdvdread --enable-sdl2 --enable-libaribb24 --enable-libaribcaption --enable-libdav1d --enable-libdavs2 --enable-libopenjpeg --enable-libquirc --enable-libuavs3d --enable-libxevd --enable-libzvbi --enable-liboapv --enable-libqrencode --enable-librav1e --enable-libsvtav1 --enable-libvvenc --enable-libwebp --enable-libx264 --enable-libx265 --enable-libxavs2 --enable-libxeve --enable-libxvid --enable-libaom --enable-libjxl --enable-libvpx --enable-mediafoundation --enable-libass --enable-frei0r --enable-libfreetype --enable-libfribidi --enable-libharfbuzz --enable-liblensfun --enable-libvidstab --enable-libvmaf --enable-libzimg --enable-amf --enable-cuda-llvm --enable-cuvid --enable-dxva2 --enable-d3d11va --enable-d3d12va --enable-ffnvcodec --enable-libvpl --enable-nvdec --enable-nvenc --enable-vaapi --enable-libshaderc --enable-vulkan --enable-libplacebo --enable-opencl --enable-libcdio --enable-openal --enable-libgme --enable-libmodplug --enable-libopenmpt --enable-libopencore-amrwb --enable-libmp3lame --enable-libshine --enable-libtheora --enable-libtwolame --enable-libvo-amrwbenc --enable-libcodec2 --enable-libilbc --enable-libgsm --enable-liblc3 --enable-libopencore-amrnb --enable-libopus --enable-libspeex --enable-libvorbis --enable-ladspa --enable-libbs2b --enable-libflite --enable-libmysofa --enable-librubberband --enable-libsoxr --enable-chromaprint
  libavutil      60.  3.100 / 60.  3.100
  libavcodec     62.  4.100 / 62.  4.100
  libavformat    62.  1.101 / 62.  1.101
  libavdevice    62.  0.100 / 62.  0.100
  libavfilter    11.  0.100 / 11.  0.100
  libswscale      9.  0.100 /  9.  0.100
  libswresample   6.  0.100 /  6.  0.100
Input #0, mov,mp4,m4a,3gp,3g2,mj2, from 'temp.mp4':
  Metadata:
    major_brand     : isom
    minor_version   : 512
    compatible_brands: isomiso2avc1mp41
    encoder         : Lavf62.1.101
  Duration: 00:05:51.53, start: 0.000000, bitrate: 12076 kb/s
  Stream #0:0[0x1](eng): Video: h264 (Main) (avc1 / 0x31637661), yuv420p(progressive), 1080x1920 [SAR 1:1 DAR 9:16], 11900 kb/s, 60 fps, 60 tbr, 15360 tbn, start 0.021029 (default)
    Metadata:
      handler_name    : ?Mainconcept Video Media Handler
      vendor_id       : [0][0][0][0]
      encoder         : Lavc62.4.100 h264_nvenc
  Stream #0:1[0x2](eng): Audio: aac (LC) (mp4a / 0x6134706D), 48000 Hz, stereo, fltp, 163 kb/s (default)
    Metadata:
      handler_name    : #Mainconcept MP4 Sound Media Handler
      vendor_id       : [0][0][0][0]
Input #1, mp3, from 'C:/Users/Admin/Music\Hollow Coves - These Memories (Official Music Video).mp3':
  Metadata:
    major_brand     : dash
    minor_version   : 0
    compatible_brands: iso6mp41
    encoder         : Lavf58.76.100
  Duration: 00:05:13.38, start: 0.025057, bitrate: 128 kb/s
  Stream #1:0: Audio: mp3 (mp3float), 44100 Hz, stereo, fltp, 128 kb/s, start 0.025057
    Metadata:
      encoder         : Lavc58.13
Stream mapping:
  Stream #0:1 (aac) -> amix
  Stream #1:0 (mp3float) -> volume:default
  Stream #0:0 -> #0:0 (copy)
  amix:default -> Stream #0:1 (aac)
Press [q] to stop, [?] for help
Output #0, mp4, to 'E:/New folder\4.mp4':
  Metadata:
    major_brand     : isom
    minor_version   : 512
    compatible_brands: isomiso2avc1mp41
    encoder         : Lavf62.1.101
  Stream #0:0(eng): Video: h264 (Main) (avc1 / 0x31637661), yuv420p(progressive), 1080x1920 [SAR 1:1 DAR 9:16], q=2-31, 11900 kb/s, 60 fps, 60 tbr, 15360 tbn (default)
    Metadata:
      handler_name    : ?Mainconcept Video Media Handler
      vendor_id       : [0][0][0][0]
      encoder         : Lavc62.4.100 h264_nvenc
  Stream #0:1: Audio: aac (LC) (mp4a / 0x6134706D), 48000 Hz, stereo, fltp, 128 kb/s
    Metadata:
      encoder         : Lavc62.4.100 aac
frame= 1387 fps=0.0 q=-1.0 size=   32512KiB time=00:00:23.18 bitrate=11485.4kbits/s speed=44.9x elapsed=0:00:00.51    frame= 1403 fps=1347 q=-1.0 size=   33024KiB time=00:00:23.46 bitrate=11528.4kbits/s speed=22.5x elapsed=0:00:01.04    frame= 2089 fps=1331 q=-1.0 size=   49408KiB time=00:00:34.88 bitrate=11604.1kbits/s speed=22.2x elapsed=0:00:01.56    frame= 3541 fps=1698 q=-1.0 size=   85248KiB time=00:00:59.07 bitrate=11822.0kbits/s speed=28.3x elapsed=0:00:02.08    frame= 5017 fps=1929 q=-1.0 size=  121088KiB time=00:01:23.69 bitrate=11852.6kbits/s speed=32.2x elapsed=0:00:02.60    frame= 6633 fps=2126 q=-1.0 size=  160768KiB time=00:01:50.57 bitrate=11911.0kbits/s speed=35.4x elapsed=0:00:03.12    frame= 8367 fps=2304 q=-1.0 size=  203264KiB time=00:02:19.47 bitrate=11938.4kbits/s speed=38.4x elapsed=0:00:03.63    frame= 9819 fps=2366 q=-1.0 size=  239360KiB time=00:02:43.71 bitrate=11977.4kbits/s speed=39.5x elapsed=0:00:04.14    frame=11404 fps=2444 q=-1.0 size=  277248KiB time=00:03:10.14 bitrate=11944.7kbits/s speed=40.8x elapsed=0:00:04.66    frame=12840 fps=2484 q=-1.0 size=  312576KiB time=00:03:34.08 bitrate=11961.1kbits/s speed=41.4x elapsed=0:00:05.16    frame=14454 fps=2542 q=-1.0 size=  352256KiB time=00:04:00.98 bitrate=11974.7kbits/s speed=42.4x elapsed=0:00:05.68    frame=16050 fps=2584 q=-1.0 size=  391680KiB time=00:04:27.58 bitrate=11991.2kbits/s speed=43.1x elapsed=0:00:06.21    frame=17232 fps=2563 q=-1.0 size=  420864KiB time=00:04:47.27 bitrate=12001.5kbits/s speed=42.7x elapsed=0:00:06.72    frame=18320 fps=2533 q=-1.0 size=  447744KiB time=00:05:05.38 bitrate=12010.7kbits/s speed=42.2x elapsed=0:00:07.23    frame=19566 fps=2525 q=-1.0 size=  478720KiB time=00:05:26.12 bitrate=12025.2kbits/s speed=42.1x elapsed=0:00:07.74    frame=20942 fps=2532 q=-1.0 size=  512256KiB time=00:05:49.07 bitrate=12021.4kbits/s speed=42.2x elapsed=0:00:08.27    [out#0/mp4 @ 00000227f150a180] video:510639KiB audio:5634KiB subtitle:0KiB other streams:0KiB global headers:0KiB muxing overhead: 0.106443%
frame=21090 fps=2537 q=-1.0 Lsize=  516823KiB time=00:05:51.47 bitrate=12045.7kbits/s speed=42.3x elapsed=0:00:08.31    
[aac @ 00000227f148e4c0] Qavg: 544.643
